<?xml version="1.0" encoding="utf-8"?>
<!-- Generator: Adobe Illustrator 16.0.0, SVG Export Plug-In . SVG Version: 6.00 Build 0)  -->
<!DOCTYPE svg PUBLIC "-//W3C//DTD SVG 1.1//EN" "http://www.w3.org/Graphics/SVG/1.1/DTD/svg11.dtd">
<svg version="1.1" id="图层_1" xmlns="http://www.w3.org/2000/svg" xmlns:xlink="http://www.w3.org/1999/xlink" x="0px" y="0px"
	 width="15px" height="20px" viewBox="0 0 15 20" enable-background="new 0 0 15 20" xml:space="preserve">
<g>
	<path fill="#009944" d="M5.884,15.593c-0.617-1.089-1.559-2.268-2.824-3.538l-0.546-0.542c-1.65-1.637-2.476-3.278-2.476-4.917
		c0-1.812,0.736-3.366,2.209-4.664c1.472-1.297,3.232-1.945,5.277-1.945c2.054,0,3.822,0.648,5.294,1.945
		c1.472,1.297,2.206,2.852,2.206,4.664c0,1.639-0.824,3.28-2.476,4.917l-0.547,0.542c-1.264,1.271-2.206,2.449-2.823,3.538
		c-0.617,1.091-1.168,2.555-1.655,4.393C7.048,18.147,6.5,16.684,5.884,15.593z"/>
</g>
<ellipse fill="#FFFFFF" cx="7.532" cy="7.084" rx="2.991" ry="2.661"/>
</svg>
