<?xml version="1.0" encoding="utf-8"?>
<!-- Generator: Adobe Illustrator 16.0.0, SVG Export Plug-In . SVG Version: 6.00 Build 0)  -->
<!DOCTYPE svg PUBLIC "-//W3C//DTD SVG 1.1//EN" "http://www.w3.org/Graphics/SVG/1.1/DTD/svg11.dtd">
<svg version="1.1" id="图层_1" xmlns="http://www.w3.org/2000/svg" xmlns:xlink="http://www.w3.org/1999/xlink" x="0px" y="0px"
	 width="800px" height="500px" viewBox="0 0 800 500" enable-background="new 0 0 800 500" xml:space="preserve">
<line fill="none" stroke="#231815" stroke-width="6" stroke-miterlimit="10" x1="72" y1="454" x2="72" y2="239"/>
<line fill="none" stroke="#231815" stroke-width="6" stroke-miterlimit="10" x1="72" y1="239" x2="163" y2="239"/>
<line fill="none" stroke="#231815" stroke-width="6" stroke-miterlimit="10" x1="163" y1="239" x2="163" y2="56"/>
<line fill="none" stroke="#231815" stroke-width="6" stroke-miterlimit="10" x1="163" y1="56" x2="272" y2="56"/>
<line fill="none" stroke="#231815" stroke-width="6" stroke-miterlimit="10" x1="272" y1="56" x2="272" y2="138"/>
<line fill="none" stroke="#231815" stroke-width="6" stroke-miterlimit="10" x1="272" y1="138" x2="477" y2="138"/>
<line fill="none" stroke="#231815" stroke-width="6" stroke-miterlimit="10" x1="72" y1="454" x2="735" y2="454"/>
<line fill="none" stroke="#231815" stroke-width="6" stroke-miterlimit="10" x1="735" y1="138" x2="735" y2="454"/>
<line fill="none" stroke="#231815" stroke-width="6" stroke-miterlimit="10" x1="594" y1="138" x2="735" y2="138"/>
<path fill="none" stroke="#231815" stroke-width="4" stroke-miterlimit="10" d="M477,82.875c25.957,0,56.374,29.167,56.374,55.125"
	/>
<path fill="none" stroke="#231815" stroke-width="4" stroke-miterlimit="10" d="M594,85.5c-25.957,0-58.874,26.543-58.874,52.5"/>
<line fill="none" stroke="#231815" stroke-width="3" stroke-miterlimit="10" x1="476.5" y1="138" x2="476.5" y2="83"/>
<line fill="none" stroke="#231815" stroke-width="3" stroke-miterlimit="10" x1="594.5" y1="140" x2="594.5" y2="85"/>
<g>
	<path fill="#22AC38" d="M632.218,239c-0.563-2.391-1.201-4.295-1.916-5.713s-1.805-2.953-3.27-4.605l-0.633-0.703
		c-1.91-2.133-2.865-4.266-2.865-6.398c0-2.355,0.853-4.377,2.558-6.064s3.747-2.531,6.126-2.531c2.367,0,4.403,0.844,6.108,2.531
		s2.558,3.709,2.558,6.064c0,2.133-0.955,4.266-2.865,6.398l-0.633,0.703c-1.465,1.652-2.555,3.188-3.27,4.605
		S632.769,236.609,632.218,239z"/>
</g>
<g>
	<path fill="#22AC38" d="M617.375,359.508c-0.563-2.391-1.201-4.295-1.916-5.713s-1.805-2.953-3.27-4.605l-0.633-0.703
		c-1.91-2.133-2.865-4.266-2.865-6.398c0-2.355,0.853-4.377,2.558-6.064s3.747-2.531,6.126-2.531c2.367,0,4.403,0.844,6.108,2.531
		s2.558,3.709,2.558,6.064c0,2.133-0.955,4.266-2.865,6.398l-0.633,0.703c-1.465,1.652-2.555,3.188-3.27,4.605
		S617.926,357.117,617.375,359.508z"/>
</g>
<g>
	<path fill="#E60012" d="M634.033,221.321c0.146,0.163,0.255,0.341,0.325,0.535c0.069,0.194,0.104,0.419,0.104,0.676
		c0,0.612-0.227,1.117-0.679,1.514s-1.014,0.596-1.685,0.596c-0.31,0-0.618-0.048-0.928-0.144s-0.576-0.212-0.801-0.349l-0.21,0.356
		h-0.391l-0.068-2.373h0.396c0.081,0.293,0.177,0.558,0.286,0.793c0.108,0.236,0.253,0.457,0.432,0.662
		c0.169,0.192,0.367,0.345,0.594,0.459c0.226,0.114,0.488,0.171,0.788,0.171c0.225,0,0.421-0.029,0.589-0.088
		c0.167-0.059,0.303-0.142,0.407-0.249s0.182-0.233,0.231-0.378c0.051-0.145,0.076-0.312,0.076-0.5c0-0.277-0.078-0.535-0.234-0.774
		s-0.389-0.421-0.698-0.544c-0.212-0.084-0.454-0.178-0.728-0.281s-0.51-0.199-0.708-0.291c-0.391-0.176-0.694-0.406-0.911-0.691
		c-0.216-0.285-0.324-0.657-0.324-1.116c0-0.264,0.054-0.509,0.161-0.737s0.261-0.431,0.459-0.61
		c0.188-0.169,0.412-0.302,0.669-0.398s0.525-0.144,0.806-0.144c0.319,0,0.604,0.049,0.856,0.146
		c0.253,0.098,0.483,0.211,0.691,0.342l0.2-0.332h0.391l0.039,2.3h-0.396c-0.071-0.264-0.152-0.516-0.242-0.757
		c-0.089-0.241-0.205-0.459-0.349-0.654c-0.14-0.189-0.311-0.339-0.513-0.452s-0.449-0.168-0.742-0.168
		c-0.31,0-0.573,0.099-0.791,0.298s-0.327,0.441-0.327,0.728c0,0.299,0.07,0.548,0.21,0.745s0.344,0.359,0.61,0.486
		c0.237,0.114,0.472,0.212,0.7,0.295c0.23,0.083,0.452,0.172,0.667,0.266c0.195,0.084,0.384,0.181,0.563,0.288
		C633.743,221.053,633.899,221.178,634.033,221.321z"/>
</g>
<g>
	<path fill="#22AC38" d="M454.334,219.794c-0.563-2.391-1.201-4.295-1.916-5.713s-1.805-2.953-3.27-4.605l-0.633-0.703
		c-1.91-2.133-2.865-4.266-2.865-6.398c0-2.355,0.853-4.377,2.558-6.064s3.747-2.531,6.126-2.531c2.367,0,4.403,0.844,6.108,2.531
		s2.558,3.709,2.558,6.064c0,2.133-0.955,4.266-2.865,6.398l-0.633,0.703c-1.465,1.652-2.555,3.188-3.27,4.605
		S454.885,217.403,454.334,219.794z"/>
</g>
<g>
	<path fill="#E60012" d="M621.421,338.584c-0.091,0.003-0.231,0.029-0.42,0.078s-0.324,0.1-0.405,0.151
		c-0.117,0.081-0.196,0.237-0.236,0.469c-0.041,0.231-0.062,0.524-0.062,0.879v5.073h-0.425l-4.199-5.669v3.574
		c0,0.4,0.025,0.708,0.076,0.923c0.05,0.215,0.127,0.368,0.231,0.459c0.075,0.071,0.229,0.139,0.464,0.2s0.389,0.095,0.464,0.098
		v0.347h-2.842v-0.347c0.088-0.007,0.236-0.038,0.444-0.095c0.208-0.058,0.339-0.108,0.391-0.154
		c0.114-0.091,0.192-0.23,0.234-0.418c0.042-0.187,0.063-0.507,0.063-0.959v-3.413c0-0.149-0.026-0.3-0.078-0.449
		s-0.122-0.266-0.21-0.347c-0.117-0.107-0.275-0.199-0.477-0.275c-0.199-0.077-0.361-0.118-0.485-0.125v-0.347h1.978l3.896,5.283
		v-3.296c0-0.403-0.026-0.714-0.078-0.93c-0.052-0.217-0.127-0.361-0.225-0.433c-0.091-0.062-0.24-0.122-0.447-0.181
		c-0.206-0.059-0.363-0.091-0.471-0.098v-0.347h2.817V338.584z"/>
</g>
<circle fill="#FFFFFF" cx="454.346" cy="203.531" r="2.987"/>
<g>
	<path fill="#22AC38" d="M278.334,181.794c-0.563-2.391-1.201-4.295-1.916-5.713s-1.805-2.953-3.27-4.605l-0.633-0.703
		c-1.91-2.133-2.865-4.266-2.865-6.398c0-2.355,0.853-4.377,2.558-6.064s3.747-2.531,6.126-2.531c2.367,0,4.403,0.844,6.108,2.531
		s2.558,3.709,2.558,6.064c0,2.133-0.955,4.266-2.865,6.398l-0.633,0.703c-1.465,1.652-2.555,3.188-3.27,4.605
		S278.885,179.403,278.334,181.794z"/>
</g>
<circle fill="#FFFFFF" cx="278.346" cy="165.531" r="2.987"/>
<g>
	<path fill="#22AC38" d="M147.334,281.794c-0.563-2.391-1.201-4.295-1.916-5.713s-1.805-2.953-3.27-4.605l-0.633-0.703
		c-1.91-2.133-2.865-4.266-2.865-6.398c0-2.355,0.853-4.377,2.558-6.064s3.747-2.531,6.126-2.531c2.367,0,4.403,0.844,6.108,2.531
		s2.558,3.709,2.558,6.064c0,2.133-0.955,4.266-2.865,6.398l-0.633,0.703c-1.465,1.652-2.555,3.188-3.27,4.605
		S147.885,279.403,147.334,281.794z"/>
</g>
<circle fill="#FFFFFF" cx="147.346" cy="265.531" r="2.987"/>
<g>
	<path fill="#22AC38" d="M208.334,385.794c-0.563-2.391-1.201-4.295-1.916-5.713s-1.805-2.953-3.27-4.605l-0.633-0.703
		c-1.91-2.133-2.865-4.266-2.865-6.398c0-2.355,0.853-4.377,2.558-6.064s3.747-2.531,6.126-2.531c2.367,0,4.403,0.844,6.108,2.531
		s2.558,3.709,2.558,6.064c0,2.133-0.955,4.266-2.865,6.398l-0.633,0.703c-1.465,1.652-2.555,3.188-3.27,4.605
		S208.885,383.403,208.334,385.794z"/>
</g>
<circle fill="#FFFFFF" cx="208.346" cy="369.531" r="2.987"/>
</svg>
