<?xml version="1.0" encoding="utf-8"?>
<!-- Generator: Adobe Illustrator 16.0.0, SVG Export Plug-In . SVG Version: 6.00 Build 0)  -->
<!DOCTYPE svg PUBLIC "-//W3C//DTD SVG 1.1//EN" "http://www.w3.org/Graphics/SVG/1.1/DTD/svg11.dtd">
<svg version="1.1" id="图层_1" xmlns="http://www.w3.org/2000/svg" xmlns:xlink="http://www.w3.org/1999/xlink" x="0px" y="0px"
	 width="800px" height="500px" viewBox="0 0 800 500" enable-background="new 0 0 800 500" xml:space="preserve">
<line fill="none" stroke="#231815" stroke-width="6" stroke-miterlimit="10" x1="72" y1="454" x2="72" y2="239"/>
<line fill="none" stroke="#231815" stroke-width="6" stroke-miterlimit="10" x1="72" y1="239" x2="163" y2="239"/>
<line fill="none" stroke="#231815" stroke-width="6" stroke-miterlimit="10" x1="163" y1="239" x2="163" y2="56"/>
<line fill="none" stroke="#231815" stroke-width="6" stroke-miterlimit="10" x1="163" y1="56" x2="272" y2="56"/>
<line fill="none" stroke="#231815" stroke-width="6" stroke-miterlimit="10" x1="272" y1="56" x2="272" y2="138"/>
<line fill="none" stroke="#231815" stroke-width="6" stroke-miterlimit="10" x1="272" y1="138" x2="477" y2="138"/>
<line fill="none" stroke="#231815" stroke-width="6" stroke-miterlimit="10" x1="72" y1="454" x2="735" y2="454"/>
<line fill="none" stroke="#231815" stroke-width="6" stroke-miterlimit="10" x1="735" y1="138" x2="735" y2="454"/>
<line fill="none" stroke="#231815" stroke-width="6" stroke-miterlimit="10" x1="594" y1="138" x2="735" y2="138"/>
<path fill="none" stroke="#231815" stroke-width="4" stroke-miterlimit="10" d="M477,82.875c25.957,0,56.374,29.167,56.374,55.125"
	/>
<path fill="none" stroke="#231815" stroke-width="4" stroke-miterlimit="10" d="M594,85.5c-25.957,0-58.874,26.543-58.874,52.5"/>
<line fill="none" stroke="#231815" stroke-width="3" stroke-miterlimit="10" x1="476.5" y1="138" x2="476.5" y2="83"/>
<line fill="none" stroke="#231815" stroke-width="3" stroke-miterlimit="10" x1="594.5" y1="140" x2="594.5" y2="85"/>
</svg>
